<?xml version="1.0" encoding="UTF-8"?>
<svg xmlns="http://www.w3.org/2000/svg" xmlns:xlink="http://www.w3.org/1999/xlink" width="75px" height="56px" viewBox="0 0 75 56" version="1.1">
<defs>
<clipPath id="clip1">
  <path d="M 23.875 18.871094 L 52.226562 18.871094 L 52.226562 40.019531 L 23.875 40.019531 Z M 23.875 18.871094 "/>
</clipPath>
<clipPath id="clip2">
  <path d="M 38.046875 18.875 C 45.863281 18.875 52.203125 23.609375 52.203125 29.445312 C 52.203125 35.28125 45.863281 40.015625 38.046875 40.015625 C 30.226562 40.015625 23.886719 35.28125 23.886719 29.445312 C 23.886719 23.609375 30.226562 18.875 38.046875 18.875 Z M 38.046875 18.875 "/>
</clipPath>
<clipPath id="clip3">
  <path d="M 38.046875 18.875 C 45.863281 18.875 52.203125 23.609375 52.203125 29.445312 C 52.203125 35.28125 45.863281 40.015625 38.046875 40.015625 C 30.226562 40.015625 23.886719 35.28125 23.886719 29.445312 C 23.886719 23.609375 30.226562 18.875 38.046875 18.875 "/>
</clipPath>
<linearGradient id="linear0" gradientUnits="userSpaceOnUse" x1="-0.42578" y1="0" x2="1.425818" y2="0" gradientTransform="matrix(0,11.417971,15.291925,0,38.0455,23.73504)">
<stop offset="0" style="stop-color:rgb(96.078431%,51.764706%,22.352941%);stop-opacity:1;"/>
<stop offset="0.125" style="stop-color:rgb(96.078431%,51.764706%,22.352941%);stop-opacity:1;"/>
<stop offset="0.1875" style="stop-color:rgb(96.078431%,51.764706%,22.352941%);stop-opacity:1;"/>
<stop offset="0.21875" style="stop-color:rgb(96.078431%,51.764706%,22.352941%);stop-opacity:1;"/>
<stop offset="0.234375" style="stop-color:rgb(96.078431%,51.764706%,22.352941%);stop-opacity:1;"/>
<stop offset="0.238281" style="stop-color:rgb(96.078431%,52.156863%,22.745098%);stop-opacity:1;"/>
<stop offset="0.242188" style="stop-color:rgb(96.078431%,52.54902%,22.745098%);stop-opacity:1;"/>
<stop offset="0.246094" style="stop-color:rgb(96.078431%,52.941176%,23.137255%);stop-opacity:1;"/>
<stop offset="0.25" style="stop-color:rgb(96.078431%,53.333333%,23.137255%);stop-opacity:1;"/>
<stop offset="0.253906" style="stop-color:rgb(96.078431%,53.333333%,23.529412%);stop-opacity:1;"/>
<stop offset="0.257812" style="stop-color:rgb(96.078431%,53.72549%,23.529412%);stop-opacity:1;"/>
<stop offset="0.261719" style="stop-color:rgb(96.470588%,54.117647%,23.921569%);stop-opacity:1;"/>
<stop offset="0.265625" style="stop-color:rgb(96.470588%,54.117647%,23.921569%);stop-opacity:1;"/>
<stop offset="0.269531" style="stop-color:rgb(96.470588%,54.509804%,23.921569%);stop-opacity:1;"/>
<stop offset="0.273438" style="stop-color:rgb(96.470588%,54.901961%,24.313725%);stop-opacity:1;"/>
<stop offset="0.277344" style="stop-color:rgb(96.470588%,54.901961%,24.313725%);stop-opacity:1;"/>
<stop offset="0.28125" style="stop-color:rgb(96.470588%,55.294118%,24.705882%);stop-opacity:1;"/>
<stop offset="0.285156" style="stop-color:rgb(96.470588%,55.686275%,24.705882%);stop-opacity:1;"/>
<stop offset="0.289062" style="stop-color:rgb(96.470588%,55.686275%,25.098039%);stop-opacity:1;"/>
<stop offset="0.292969" style="stop-color:rgb(96.470588%,56.078431%,25.098039%);stop-opacity:1;"/>
<stop offset="0.296875" style="stop-color:rgb(96.470588%,56.470588%,25.098039%);stop-opacity:1;"/>
<stop offset="0.300781" style="stop-color:rgb(96.470588%,56.470588%,25.490196%);stop-opacity:1;"/>
<stop offset="0.304688" style="stop-color:rgb(96.470588%,56.862745%,25.490196%);stop-opacity:1;"/>
<stop offset="0.308594" style="stop-color:rgb(96.470588%,57.254902%,25.882353%);stop-opacity:1;"/>
<stop offset="0.3125" style="stop-color:rgb(96.470588%,57.647059%,25.882353%);stop-opacity:1;"/>
<stop offset="0.316406" style="stop-color:rgb(96.470588%,57.647059%,26.27451%);stop-opacity:1;"/>
<stop offset="0.320312" style="stop-color:rgb(96.862745%,58.039216%,26.27451%);stop-opacity:1;"/>
<stop offset="0.324219" style="stop-color:rgb(96.862745%,58.431373%,26.27451%);stop-opacity:1;"/>
<stop offset="0.328125" style="stop-color:rgb(96.862745%,58.431373%,26.666667%);stop-opacity:1;"/>
<stop offset="0.332031" style="stop-color:rgb(96.862745%,58.823529%,26.666667%);stop-opacity:1;"/>
<stop offset="0.335938" style="stop-color:rgb(96.862745%,59.215686%,27.058824%);stop-opacity:1;"/>
<stop offset="0.339844" style="stop-color:rgb(96.862745%,59.215686%,27.058824%);stop-opacity:1;"/>
<stop offset="0.34375" style="stop-color:rgb(96.862745%,59.607843%,27.45098%);stop-opacity:1;"/>
<stop offset="0.347656" style="stop-color:rgb(96.862745%,60%,27.45098%);stop-opacity:1;"/>
<stop offset="0.351562" style="stop-color:rgb(96.862745%,60%,27.843137%);stop-opacity:1;"/>
<stop offset="0.355469" style="stop-color:rgb(96.862745%,60.392157%,27.843137%);stop-opacity:1;"/>
<stop offset="0.359375" style="stop-color:rgb(96.862745%,60.784314%,27.843137%);stop-opacity:1;"/>
<stop offset="0.363281" style="stop-color:rgb(96.862745%,60.784314%,28.235294%);stop-opacity:1;"/>
<stop offset="0.367188" style="stop-color:rgb(96.862745%,61.176471%,28.235294%);stop-opacity:1;"/>
<stop offset="0.371094" style="stop-color:rgb(96.862745%,61.568627%,28.627451%);stop-opacity:1;"/>
<stop offset="0.375" style="stop-color:rgb(96.862745%,61.960784%,28.627451%);stop-opacity:1;"/>
<stop offset="0.378906" style="stop-color:rgb(96.862745%,61.960784%,29.019608%);stop-opacity:1;"/>
<stop offset="0.382812" style="stop-color:rgb(97.254902%,62.352941%,29.019608%);stop-opacity:1;"/>
<stop offset="0.386719" style="stop-color:rgb(97.254902%,62.745098%,29.019608%);stop-opacity:1;"/>
<stop offset="0.390625" style="stop-color:rgb(97.254902%,62.745098%,29.411765%);stop-opacity:1;"/>
<stop offset="0.394531" style="stop-color:rgb(97.254902%,63.137255%,29.411765%);stop-opacity:1;"/>
<stop offset="0.398438" style="stop-color:rgb(97.254902%,63.529412%,29.803922%);stop-opacity:1;"/>
<stop offset="0.402344" style="stop-color:rgb(97.254902%,63.529412%,29.803922%);stop-opacity:1;"/>
<stop offset="0.40625" style="stop-color:rgb(97.254902%,63.921569%,30.196078%);stop-opacity:1;"/>
<stop offset="0.410156" style="stop-color:rgb(97.254902%,64.313725%,30.196078%);stop-opacity:1;"/>
<stop offset="0.414062" style="stop-color:rgb(97.254902%,64.313725%,30.196078%);stop-opacity:1;"/>
<stop offset="0.417969" style="stop-color:rgb(97.254902%,64.705882%,30.588235%);stop-opacity:1;"/>
<stop offset="0.421875" style="stop-color:rgb(97.254902%,65.098039%,30.588235%);stop-opacity:1;"/>
<stop offset="0.425781" style="stop-color:rgb(97.254902%,65.098039%,30.980392%);stop-opacity:1;"/>
<stop offset="0.429687" style="stop-color:rgb(97.254902%,65.490196%,30.980392%);stop-opacity:1;"/>
<stop offset="0.433594" style="stop-color:rgb(97.254902%,65.882353%,31.372549%);stop-opacity:1;"/>
<stop offset="0.4375" style="stop-color:rgb(97.254902%,66.27451%,31.372549%);stop-opacity:1;"/>
<stop offset="0.441406" style="stop-color:rgb(97.647059%,66.27451%,31.372549%);stop-opacity:1;"/>
<stop offset="0.445312" style="stop-color:rgb(97.647059%,66.666667%,31.764706%);stop-opacity:1;"/>
<stop offset="0.449219" style="stop-color:rgb(97.647059%,67.058824%,31.764706%);stop-opacity:1;"/>
<stop offset="0.453125" style="stop-color:rgb(97.647059%,67.058824%,32.156863%);stop-opacity:1;"/>
<stop offset="0.457031" style="stop-color:rgb(97.647059%,67.45098%,32.156863%);stop-opacity:1;"/>
<stop offset="0.460938" style="stop-color:rgb(97.647059%,67.843137%,32.54902%);stop-opacity:1;"/>
<stop offset="0.464844" style="stop-color:rgb(97.647059%,67.843137%,32.54902%);stop-opacity:1;"/>
<stop offset="0.46875" style="stop-color:rgb(97.647059%,68.235294%,32.941176%);stop-opacity:1;"/>
<stop offset="0.472656" style="stop-color:rgb(97.647059%,68.627451%,32.941176%);stop-opacity:1;"/>
<stop offset="0.476562" style="stop-color:rgb(97.647059%,68.627451%,32.941176%);stop-opacity:1;"/>
<stop offset="0.480469" style="stop-color:rgb(97.647059%,69.019608%,33.333333%);stop-opacity:1;"/>
<stop offset="0.484375" style="stop-color:rgb(97.647059%,69.411765%,33.333333%);stop-opacity:1;"/>
<stop offset="0.488281" style="stop-color:rgb(97.647059%,69.411765%,33.72549%);stop-opacity:1;"/>
<stop offset="0.492188" style="stop-color:rgb(97.647059%,69.803922%,33.72549%);stop-opacity:1;"/>
<stop offset="0.496094" style="stop-color:rgb(97.647059%,70.196078%,34.117647%);stop-opacity:1;"/>
<stop offset="0.5" style="stop-color:rgb(97.647059%,70.196078%,34.117647%);stop-opacity:1;"/>
<stop offset="0.503906" style="stop-color:rgb(98.039216%,70.588235%,34.117647%);stop-opacity:1;"/>
<stop offset="0.507813" style="stop-color:rgb(98.039216%,70.980392%,34.509804%);stop-opacity:1;"/>
<stop offset="0.511719" style="stop-color:rgb(98.039216%,71.372549%,34.509804%);stop-opacity:1;"/>
<stop offset="0.515625" style="stop-color:rgb(98.039216%,71.372549%,34.901961%);stop-opacity:1;"/>
<stop offset="0.519531" style="stop-color:rgb(98.039216%,71.764706%,34.901961%);stop-opacity:1;"/>
<stop offset="0.523438" style="stop-color:rgb(98.039216%,72.156863%,35.294118%);stop-opacity:1;"/>
<stop offset="0.527344" style="stop-color:rgb(98.039216%,72.156863%,35.294118%);stop-opacity:1;"/>
<stop offset="0.53125" style="stop-color:rgb(98.039216%,72.54902%,35.294118%);stop-opacity:1;"/>
<stop offset="0.535156" style="stop-color:rgb(98.039216%,72.941176%,35.686275%);stop-opacity:1;"/>
<stop offset="0.539062" style="stop-color:rgb(98.039216%,72.941176%,35.686275%);stop-opacity:1;"/>
<stop offset="0.542969" style="stop-color:rgb(98.039216%,73.333333%,36.078431%);stop-opacity:1;"/>
<stop offset="0.546875" style="stop-color:rgb(98.039216%,73.72549%,36.078431%);stop-opacity:1;"/>
<stop offset="0.550781" style="stop-color:rgb(98.039216%,73.72549%,36.470588%);stop-opacity:1;"/>
<stop offset="0.554688" style="stop-color:rgb(98.039216%,74.117647%,36.470588%);stop-opacity:1;"/>
<stop offset="0.558594" style="stop-color:rgb(98.039216%,74.509804%,36.862745%);stop-opacity:1;"/>
<stop offset="0.5625" style="stop-color:rgb(98.431373%,74.509804%,36.862745%);stop-opacity:1;"/>
<stop offset="0.566406" style="stop-color:rgb(98.431373%,74.901961%,36.862745%);stop-opacity:1;"/>
<stop offset="0.570312" style="stop-color:rgb(98.431373%,75.294118%,37.254902%);stop-opacity:1;"/>
<stop offset="0.574219" style="stop-color:rgb(98.431373%,75.686275%,37.254902%);stop-opacity:1;"/>
<stop offset="0.578125" style="stop-color:rgb(98.431373%,75.686275%,37.647059%);stop-opacity:1;"/>
<stop offset="0.582031" style="stop-color:rgb(98.431373%,76.078431%,37.647059%);stop-opacity:1;"/>
<stop offset="0.585938" style="stop-color:rgb(98.431373%,76.470588%,38.039216%);stop-opacity:1;"/>
<stop offset="0.589844" style="stop-color:rgb(98.431373%,76.470588%,38.039216%);stop-opacity:1;"/>
<stop offset="0.59375" style="stop-color:rgb(98.431373%,76.862745%,38.039216%);stop-opacity:1;"/>
<stop offset="0.597656" style="stop-color:rgb(98.431373%,77.254902%,38.431373%);stop-opacity:1;"/>
<stop offset="0.601562" style="stop-color:rgb(98.431373%,77.254902%,38.431373%);stop-opacity:1;"/>
<stop offset="0.605469" style="stop-color:rgb(98.431373%,77.647059%,38.823529%);stop-opacity:1;"/>
<stop offset="0.609375" style="stop-color:rgb(98.431373%,78.039216%,38.823529%);stop-opacity:1;"/>
<stop offset="0.613281" style="stop-color:rgb(98.431373%,78.039216%,39.215686%);stop-opacity:1;"/>
<stop offset="0.617188" style="stop-color:rgb(98.431373%,78.431373%,39.215686%);stop-opacity:1;"/>
<stop offset="0.621094" style="stop-color:rgb(98.823529%,78.823529%,39.215686%);stop-opacity:1;"/>
<stop offset="0.625" style="stop-color:rgb(98.823529%,78.823529%,39.607843%);stop-opacity:1;"/>
<stop offset="0.628906" style="stop-color:rgb(98.823529%,79.215686%,39.607843%);stop-opacity:1;"/>
<stop offset="0.632812" style="stop-color:rgb(98.823529%,79.607843%,40%);stop-opacity:1;"/>
<stop offset="0.636719" style="stop-color:rgb(98.823529%,80%,40%);stop-opacity:1;"/>
<stop offset="0.640625" style="stop-color:rgb(98.823529%,80%,40.392157%);stop-opacity:1;"/>
<stop offset="0.644531" style="stop-color:rgb(98.823529%,80.392157%,40.392157%);stop-opacity:1;"/>
<stop offset="0.648438" style="stop-color:rgb(98.823529%,80.784314%,40.392157%);stop-opacity:1;"/>
<stop offset="0.652344" style="stop-color:rgb(98.823529%,80.784314%,40.784314%);stop-opacity:1;"/>
<stop offset="0.65625" style="stop-color:rgb(98.823529%,81.176471%,40.784314%);stop-opacity:1;"/>
<stop offset="0.660156" style="stop-color:rgb(98.823529%,81.568627%,41.176471%);stop-opacity:1;"/>
<stop offset="0.664062" style="stop-color:rgb(98.823529%,81.568627%,41.176471%);stop-opacity:1;"/>
<stop offset="0.667969" style="stop-color:rgb(98.823529%,81.960784%,41.568627%);stop-opacity:1;"/>
<stop offset="0.671875" style="stop-color:rgb(98.823529%,82.352941%,41.568627%);stop-opacity:1;"/>
<stop offset="0.675781" style="stop-color:rgb(98.823529%,82.352941%,41.960784%);stop-opacity:1;"/>
<stop offset="0.679688" style="stop-color:rgb(98.823529%,82.745098%,41.960784%);stop-opacity:1;"/>
<stop offset="0.683594" style="stop-color:rgb(99.215686%,83.137255%,41.960784%);stop-opacity:1;"/>
<stop offset="0.6875" style="stop-color:rgb(99.215686%,83.137255%,42.352941%);stop-opacity:1;"/>
<stop offset="0.691406" style="stop-color:rgb(99.215686%,83.529412%,42.352941%);stop-opacity:1;"/>
<stop offset="0.695312" style="stop-color:rgb(99.215686%,83.921569%,42.745098%);stop-opacity:1;"/>
<stop offset="0.699219" style="stop-color:rgb(99.215686%,84.313725%,42.745098%);stop-opacity:1;"/>
<stop offset="0.703125" style="stop-color:rgb(99.215686%,84.313725%,43.137255%);stop-opacity:1;"/>
<stop offset="0.707031" style="stop-color:rgb(99.215686%,84.705882%,43.137255%);stop-opacity:1;"/>
<stop offset="0.710938" style="stop-color:rgb(99.215686%,85.098039%,43.137255%);stop-opacity:1;"/>
<stop offset="0.714844" style="stop-color:rgb(99.215686%,85.098039%,43.529412%);stop-opacity:1;"/>
<stop offset="0.71875" style="stop-color:rgb(99.215686%,85.490196%,43.529412%);stop-opacity:1;"/>
<stop offset="0.722656" style="stop-color:rgb(99.215686%,85.882353%,43.921569%);stop-opacity:1;"/>
<stop offset="0.726562" style="stop-color:rgb(99.215686%,85.882353%,43.921569%);stop-opacity:1;"/>
<stop offset="0.730469" style="stop-color:rgb(99.215686%,86.27451%,44.313725%);stop-opacity:1;"/>
<stop offset="0.734375" style="stop-color:rgb(99.215686%,86.666667%,44.313725%);stop-opacity:1;"/>
<stop offset="0.738281" style="stop-color:rgb(99.215686%,86.666667%,44.313725%);stop-opacity:1;"/>
<stop offset="0.742188" style="stop-color:rgb(99.607843%,87.058824%,44.705882%);stop-opacity:1;"/>
<stop offset="0.746094" style="stop-color:rgb(99.607843%,87.45098%,44.705882%);stop-opacity:1;"/>
<stop offset="0.75" style="stop-color:rgb(99.607843%,87.45098%,45.098039%);stop-opacity:1;"/>
<stop offset="0.753906" style="stop-color:rgb(99.607843%,87.843137%,45.098039%);stop-opacity:1;"/>
<stop offset="0.757812" style="stop-color:rgb(99.607843%,88.235294%,45.490196%);stop-opacity:1;"/>
<stop offset="0.761719" style="stop-color:rgb(99.607843%,88.627451%,45.490196%);stop-opacity:1;"/>
<stop offset="0.765625" style="stop-color:rgb(99.607843%,88.627451%,45.882353%);stop-opacity:1;"/>
<stop offset="0.78125" style="stop-color:rgb(99.607843%,89.019608%,45.882353%);stop-opacity:1;"/>
<stop offset="0.8125" style="stop-color:rgb(99.607843%,89.019608%,45.882353%);stop-opacity:1;"/>
<stop offset="0.875" style="stop-color:rgb(99.607843%,89.019608%,45.882353%);stop-opacity:1;"/>
<stop offset="1" style="stop-color:rgb(99.607843%,89.019608%,45.882353%);stop-opacity:1;"/>
</linearGradient>
<clipPath id="clip4">
  <path d="M 34.675781 24.042969 L 48.148438 24.042969 L 48.148438 34.105469 L 34.675781 34.105469 Z M 34.675781 24.042969 "/>
</clipPath>
<clipPath id="clip5">
  <path d="M 41.410156 24.046875 C 45.125 24.046875 48.136719 26.296875 48.136719 29.070312 C 48.136719 31.84375 45.125 34.089844 41.410156 34.089844 C 37.695312 34.089844 34.683594 31.84375 34.683594 29.070312 C 34.683594 26.296875 37.695312 24.046875 41.410156 24.046875 Z M 41.410156 24.046875 "/>
</clipPath>
<clipPath id="clip6">
  <path d="M 41.410156 24.046875 C 45.125 24.046875 48.136719 26.296875 48.136719 29.070312 C 48.136719 31.84375 45.125 34.089844 41.410156 34.089844 C 37.695312 34.089844 34.683594 31.84375 34.683594 29.070312 C 34.683594 26.296875 37.695312 24.046875 41.410156 24.046875 "/>
</clipPath>
<linearGradient id="linear1" gradientUnits="userSpaceOnUse" x1="-0.636715" y1="0" x2="1.637222" y2="0" gradientTransform="matrix(1.758557,5.201317,6.96605,-1.313056,40.529,26.467093)">
<stop offset="0" style="stop-color:rgb(100%,80%,16.078431%);stop-opacity:1;"/>
<stop offset="0.25" style="stop-color:rgb(100%,80%,16.078431%);stop-opacity:1;"/>
<stop offset="0.28125" style="stop-color:rgb(100%,80%,16.078431%);stop-opacity:1;"/>
<stop offset="0.285156" style="stop-color:rgb(100%,80.392157%,16.470588%);stop-opacity:1;"/>
<stop offset="0.289062" style="stop-color:rgb(100%,80.392157%,16.862745%);stop-opacity:1;"/>
<stop offset="0.292969" style="stop-color:rgb(100%,80.784314%,17.254902%);stop-opacity:1;"/>
<stop offset="0.296875" style="stop-color:rgb(100%,80.784314%,17.647059%);stop-opacity:1;"/>
<stop offset="0.300781" style="stop-color:rgb(100%,80.784314%,18.039216%);stop-opacity:1;"/>
<stop offset="0.304688" style="stop-color:rgb(100%,81.176471%,18.431373%);stop-opacity:1;"/>
<stop offset="0.308594" style="stop-color:rgb(100%,81.176471%,19.215686%);stop-opacity:1;"/>
<stop offset="0.3125" style="stop-color:rgb(100%,81.568627%,19.607843%);stop-opacity:1;"/>
<stop offset="0.316406" style="stop-color:rgb(100%,81.568627%,20%);stop-opacity:1;"/>
<stop offset="0.320312" style="stop-color:rgb(100%,81.960784%,20.392157%);stop-opacity:1;"/>
<stop offset="0.324219" style="stop-color:rgb(100%,81.960784%,20.784314%);stop-opacity:1;"/>
<stop offset="0.328125" style="stop-color:rgb(100%,82.352941%,21.176471%);stop-opacity:1;"/>
<stop offset="0.332031" style="stop-color:rgb(100%,82.352941%,21.568627%);stop-opacity:1;"/>
<stop offset="0.335938" style="stop-color:rgb(100%,82.745098%,21.960784%);stop-opacity:1;"/>
<stop offset="0.339844" style="stop-color:rgb(100%,82.745098%,22.352941%);stop-opacity:1;"/>
<stop offset="0.34375" style="stop-color:rgb(100%,83.137255%,22.745098%);stop-opacity:1;"/>
<stop offset="0.347656" style="stop-color:rgb(100%,83.137255%,23.137255%);stop-opacity:1;"/>
<stop offset="0.351562" style="stop-color:rgb(100%,83.137255%,23.529412%);stop-opacity:1;"/>
<stop offset="0.355469" style="stop-color:rgb(100%,83.529412%,23.921569%);stop-opacity:1;"/>
<stop offset="0.359375" style="stop-color:rgb(100%,83.529412%,24.313725%);stop-opacity:1;"/>
<stop offset="0.363281" style="stop-color:rgb(100%,83.921569%,24.705882%);stop-opacity:1;"/>
<stop offset="0.367188" style="stop-color:rgb(100%,83.921569%,25.098039%);stop-opacity:1;"/>
<stop offset="0.371094" style="stop-color:rgb(100%,84.313725%,25.490196%);stop-opacity:1;"/>
<stop offset="0.375" style="stop-color:rgb(100%,84.313725%,25.882353%);stop-opacity:1;"/>
<stop offset="0.378906" style="stop-color:rgb(100%,84.705882%,26.27451%);stop-opacity:1;"/>
<stop offset="0.382812" style="stop-color:rgb(100%,84.705882%,26.666667%);stop-opacity:1;"/>
<stop offset="0.386719" style="stop-color:rgb(100%,85.098039%,27.058824%);stop-opacity:1;"/>
<stop offset="0.390625" style="stop-color:rgb(100%,85.098039%,27.45098%);stop-opacity:1;"/>
<stop offset="0.394531" style="stop-color:rgb(100%,85.098039%,27.843137%);stop-opacity:1;"/>
<stop offset="0.398438" style="stop-color:rgb(100%,85.490196%,28.235294%);stop-opacity:1;"/>
<stop offset="0.402344" style="stop-color:rgb(100%,85.490196%,28.627451%);stop-opacity:1;"/>
<stop offset="0.40625" style="stop-color:rgb(100%,85.882353%,29.019608%);stop-opacity:1;"/>
<stop offset="0.410156" style="stop-color:rgb(100%,85.882353%,29.411765%);stop-opacity:1;"/>
<stop offset="0.414062" style="stop-color:rgb(100%,86.27451%,29.803922%);stop-opacity:1;"/>
<stop offset="0.417969" style="stop-color:rgb(100%,86.27451%,30.196078%);stop-opacity:1;"/>
<stop offset="0.421875" style="stop-color:rgb(100%,86.666667%,30.588235%);stop-opacity:1;"/>
<stop offset="0.425781" style="stop-color:rgb(100%,86.666667%,30.980392%);stop-opacity:1;"/>
<stop offset="0.429688" style="stop-color:rgb(100%,87.058824%,31.372549%);stop-opacity:1;"/>
<stop offset="0.433594" style="stop-color:rgb(100%,87.058824%,31.764706%);stop-opacity:1;"/>
<stop offset="0.4375" style="stop-color:rgb(100%,87.45098%,32.156863%);stop-opacity:1;"/>
<stop offset="0.441406" style="stop-color:rgb(100%,87.45098%,32.54902%);stop-opacity:1;"/>
<stop offset="0.445312" style="stop-color:rgb(100%,87.45098%,32.941176%);stop-opacity:1;"/>
<stop offset="0.449219" style="stop-color:rgb(100%,87.843137%,33.333333%);stop-opacity:1;"/>
<stop offset="0.453125" style="stop-color:rgb(100%,87.843137%,33.72549%);stop-opacity:1;"/>
<stop offset="0.457031" style="stop-color:rgb(100%,88.235294%,34.509804%);stop-opacity:1;"/>
<stop offset="0.460938" style="stop-color:rgb(100%,88.235294%,34.901961%);stop-opacity:1;"/>
<stop offset="0.464844" style="stop-color:rgb(100%,88.627451%,35.294118%);stop-opacity:1;"/>
<stop offset="0.46875" style="stop-color:rgb(100%,88.627451%,35.686275%);stop-opacity:1;"/>
<stop offset="0.472656" style="stop-color:rgb(100%,89.019608%,36.078431%);stop-opacity:1;"/>
<stop offset="0.476562" style="stop-color:rgb(100%,89.019608%,36.470588%);stop-opacity:1;"/>
<stop offset="0.480469" style="stop-color:rgb(100%,89.411765%,36.862745%);stop-opacity:1;"/>
<stop offset="0.484375" style="stop-color:rgb(100%,89.411765%,37.254902%);stop-opacity:1;"/>
<stop offset="0.488281" style="stop-color:rgb(100%,89.803922%,37.647059%);stop-opacity:1;"/>
<stop offset="0.492188" style="stop-color:rgb(100%,89.803922%,38.039216%);stop-opacity:1;"/>
<stop offset="0.496094" style="stop-color:rgb(100%,89.803922%,38.431373%);stop-opacity:1;"/>
<stop offset="0.5" style="stop-color:rgb(100%,90.196078%,38.823529%);stop-opacity:1;"/>
<stop offset="0.503906" style="stop-color:rgb(100%,90.196078%,39.215686%);stop-opacity:1;"/>
<stop offset="0.507812" style="stop-color:rgb(100%,90.196078%,39.215686%);stop-opacity:1;"/>
<stop offset="0.511719" style="stop-color:rgb(100%,90.196078%,39.607843%);stop-opacity:1;"/>
<stop offset="0.515625" style="stop-color:rgb(100%,90.588235%,40%);stop-opacity:1;"/>
<stop offset="0.519531" style="stop-color:rgb(100%,90.588235%,40.392157%);stop-opacity:1;"/>
<stop offset="0.523438" style="stop-color:rgb(100%,90.588235%,40.784314%);stop-opacity:1;"/>
<stop offset="0.527344" style="stop-color:rgb(100%,90.588235%,41.176471%);stop-opacity:1;"/>
<stop offset="0.53125" style="stop-color:rgb(100%,90.588235%,41.176471%);stop-opacity:1;"/>
<stop offset="0.535156" style="stop-color:rgb(100%,90.980392%,41.568627%);stop-opacity:1;"/>
<stop offset="0.539062" style="stop-color:rgb(100%,90.980392%,41.960784%);stop-opacity:1;"/>
<stop offset="0.542969" style="stop-color:rgb(100%,90.980392%,42.352941%);stop-opacity:1;"/>
<stop offset="0.546875" style="stop-color:rgb(100%,90.980392%,42.745098%);stop-opacity:1;"/>
<stop offset="0.550781" style="stop-color:rgb(100%,90.980392%,43.137255%);stop-opacity:1;"/>
<stop offset="0.554688" style="stop-color:rgb(100%,90.980392%,43.137255%);stop-opacity:1;"/>
<stop offset="0.558594" style="stop-color:rgb(100%,91.372549%,43.529412%);stop-opacity:1;"/>
<stop offset="0.5625" style="stop-color:rgb(100%,91.372549%,43.921569%);stop-opacity:1;"/>
<stop offset="0.566406" style="stop-color:rgb(100%,91.372549%,44.313725%);stop-opacity:1;"/>
<stop offset="0.570312" style="stop-color:rgb(100%,91.372549%,44.705882%);stop-opacity:1;"/>
<stop offset="0.574219" style="stop-color:rgb(100%,91.372549%,44.705882%);stop-opacity:1;"/>
<stop offset="0.578125" style="stop-color:rgb(100%,91.764706%,45.098039%);stop-opacity:1;"/>
<stop offset="0.582031" style="stop-color:rgb(100%,91.764706%,45.490196%);stop-opacity:1;"/>
<stop offset="0.585938" style="stop-color:rgb(100%,91.764706%,45.882353%);stop-opacity:1;"/>
<stop offset="0.589844" style="stop-color:rgb(100%,91.764706%,46.27451%);stop-opacity:1;"/>
<stop offset="0.59375" style="stop-color:rgb(100%,91.764706%,46.666667%);stop-opacity:1;"/>
<stop offset="0.597656" style="stop-color:rgb(100%,91.764706%,46.666667%);stop-opacity:1;"/>
<stop offset="0.601562" style="stop-color:rgb(100%,92.156863%,47.058824%);stop-opacity:1;"/>
<stop offset="0.605469" style="stop-color:rgb(100%,92.156863%,47.45098%);stop-opacity:1;"/>
<stop offset="0.609375" style="stop-color:rgb(100%,92.156863%,47.843137%);stop-opacity:1;"/>
<stop offset="0.613281" style="stop-color:rgb(100%,92.156863%,48.235294%);stop-opacity:1;"/>
<stop offset="0.617188" style="stop-color:rgb(100%,92.156863%,48.235294%);stop-opacity:1;"/>
<stop offset="0.621094" style="stop-color:rgb(100%,92.156863%,48.627451%);stop-opacity:1;"/>
<stop offset="0.625" style="stop-color:rgb(100%,92.54902%,49.019608%);stop-opacity:1;"/>
<stop offset="0.628906" style="stop-color:rgb(100%,92.54902%,49.411765%);stop-opacity:1;"/>
<stop offset="0.632812" style="stop-color:rgb(100%,92.54902%,49.803922%);stop-opacity:1;"/>
<stop offset="0.636719" style="stop-color:rgb(100%,92.54902%,50.196078%);stop-opacity:1;"/>
<stop offset="0.640625" style="stop-color:rgb(100%,92.54902%,50.196078%);stop-opacity:1;"/>
<stop offset="0.644531" style="stop-color:rgb(100%,92.941176%,50.588235%);stop-opacity:1;"/>
<stop offset="0.648438" style="stop-color:rgb(100%,92.941176%,50.980392%);stop-opacity:1;"/>
<stop offset="0.652344" style="stop-color:rgb(100%,92.941176%,51.372549%);stop-opacity:1;"/>
<stop offset="0.65625" style="stop-color:rgb(100%,92.941176%,51.764706%);stop-opacity:1;"/>
<stop offset="0.660156" style="stop-color:rgb(100%,92.941176%,51.764706%);stop-opacity:1;"/>
<stop offset="0.664062" style="stop-color:rgb(100%,92.941176%,52.156863%);stop-opacity:1;"/>
<stop offset="0.667969" style="stop-color:rgb(100%,93.333333%,52.54902%);stop-opacity:1;"/>
<stop offset="0.671875" style="stop-color:rgb(100%,93.333333%,52.941176%);stop-opacity:1;"/>
<stop offset="0.675781" style="stop-color:rgb(100%,93.333333%,53.333333%);stop-opacity:1;"/>
<stop offset="0.679688" style="stop-color:rgb(100%,93.333333%,53.72549%);stop-opacity:1;"/>
<stop offset="0.683594" style="stop-color:rgb(100%,93.333333%,53.72549%);stop-opacity:1;"/>
<stop offset="0.6875" style="stop-color:rgb(100%,93.72549%,54.117647%);stop-opacity:1;"/>
<stop offset="0.691406" style="stop-color:rgb(100%,93.72549%,54.509804%);stop-opacity:1;"/>
<stop offset="0.695312" style="stop-color:rgb(100%,93.72549%,54.901961%);stop-opacity:1;"/>
<stop offset="0.699219" style="stop-color:rgb(100%,93.72549%,55.294118%);stop-opacity:1;"/>
<stop offset="0.703125" style="stop-color:rgb(100%,93.72549%,55.294118%);stop-opacity:1;"/>
<stop offset="0.707031" style="stop-color:rgb(100%,93.72549%,55.686275%);stop-opacity:1;"/>
<stop offset="0.710938" style="stop-color:rgb(100%,94.117647%,56.078431%);stop-opacity:1;"/>
<stop offset="0.714844" style="stop-color:rgb(100%,94.117647%,56.470588%);stop-opacity:1;"/>
<stop offset="0.71875" style="stop-color:rgb(100%,94.117647%,56.862745%);stop-opacity:1;"/>
<stop offset="0.75" style="stop-color:rgb(100%,94.117647%,56.862745%);stop-opacity:1;"/>
<stop offset="1" style="stop-color:rgb(100%,94.117647%,56.862745%);stop-opacity:1;"/>
</linearGradient>
</defs>
<g id="surface1">
<rect x="0" y="0" width="75" height="56" style="fill:rgb(100%,100%,100%);fill-opacity:1;stroke:none;"/>
<path style=" stroke:none;fill-rule:nonzero;fill:rgb(3.137255%,15.294118%,23.137255%);fill-opacity:1;" d="M 38.046875 17.8125 C 46.652344 17.8125 53.625 23.019531 53.625 29.445312 C 53.625 35.871094 46.652344 41.078125 38.046875 41.078125 C 29.441406 41.078125 22.464844 35.871094 22.464844 29.445312 C 22.464844 23.019531 29.441406 17.8125 38.046875 17.8125 "/>
<g clip-path="url(#clip1)" clip-rule="nonzero">
<g clip-path="url(#clip2)" clip-rule="nonzero">
<g clip-path="url(#clip3)" clip-rule="nonzero">
<path style=" stroke:none;fill-rule:nonzero;fill:url(#linear0);" d="M 23.886719 18.875 L 52.203125 18.875 L 52.203125 40.015625 L 23.886719 40.015625 Z M 23.886719 18.875 "/>
</g>
</g>
</g>
<g clip-path="url(#clip4)" clip-rule="nonzero">
<g clip-path="url(#clip5)" clip-rule="nonzero">
<g clip-path="url(#clip6)" clip-rule="nonzero">
<path style=" stroke:none;fill-rule:nonzero;fill:url(#linear1);" d="M 31.488281 24.648438 L 47.328125 21.664062 L 51.328125 33.488281 L 35.488281 36.476562 Z M 31.488281 24.648438 "/>
</g>
</g>
</g>
<path style=" stroke:none;fill-rule:nonzero;fill:rgb(3.137255%,15.294118%,23.137255%);fill-opacity:1;" d="M 50.996094 18.132812 L 50.941406 18.117188 L 50.964844 18.070312 C 50.972656 18.09375 50.988281 18.113281 50.996094 18.132812 Z M 50.183594 19.296875 C 49.636719 19.582031 47.105469 20.992188 46.71875 22.804688 C 46.289062 24.847656 47.6875 26.695312 47.6875 26.695312 C 47.6875 26.695312 47.65625 24.796875 47.980469 23.785156 C 48.226562 24.007812 48.429688 24.191406 48.429688 24.191406 C 48.429688 24.191406 48.5625 22.9375 48.753906 22.117188 L 49.039062 22.746094 C 49.34375 21.847656 49.96875 20.292969 50.871094 19.351562 C 50.949219 19.421875 51.019531 19.492188 51.097656 19.5625 C 50.925781 22.539062 49.691406 30.246094 41.402344 32.941406 L 41.464844 33.78125 L 47.144531 33.253906 C 49.835938 29.589844 52.046875 24.722656 52.046875 20.800781 C 52.371094 21.34375 52.605469 21.898438 52.714844 22.355469 L 53.039062 21.785156 C 53.136719 22.570312 53.144531 23.75 53.144531 23.75 C 53.144531 23.75 53.347656 23.585938 53.609375 23.394531 C 53.820312 24.363281 53.609375 26.148438 53.609375 26.148438 C 56.085938 23.382812 55.21875 21 52.203125 19.3125 C 53.253906 19.796875 54.25 20.488281 54.832031 21.074219 L 54.792969 20.449219 C 55.363281 21.125 56.097656 22.191406 56.097656 22.191406 C 56.097656 22.191406 56.183594 21.980469 56.316406 21.726562 C 57.097656 22.527344 57.984375 24.207031 57.984375 24.207031 C 58.628906 21.074219 56.585938 19.21875 53.03125 18.574219 C 53.933594 18.5 54.878906 18.550781 55.597656 18.699219 L 54.976562 18.175781 C 55.945312 18.441406 57.382812 18.964844 57.382812 18.964844 C 57.382812 18.964844 57.226562 18.730469 57.058594 18.429688 C 58.265625 18.695312 60.382812 19.671875 60.382812 19.671875 C 57.792969 16.628906 54.910156 16.316406 52.226562 17.609375 C 52.566406 17.175781 53.007812 16.789062 53.402344 16.558594 L 52.828125 16.542969 C 53.402344 16.265625 54.320312 15.921875 54.320312 15.921875 C 54.320312 15.921875 54.113281 15.867188 53.871094 15.777344 C 54.546875 15.390625 56.015625 15 56.015625 15 C 56.015625 15 54.152344 14.664062 52.714844 15.328125 C 51.949219 15.6875 51.539062 16.414062 51.328125 17.015625 C 51.058594 16.402344 50.484375 15.414062 49.449219 15.0625 C 47.910156 14.542969 46.125 15.050781 46.125 15.050781 C 46.125 15.050781 47.648438 15.300781 48.382812 15.617188 C 48.160156 15.726562 47.964844 15.808594 47.964844 15.808594 C 47.964844 15.808594 48.933594 16.054688 49.550781 16.277344 L 49.171875 16.320312 C 47.449219 15.410156 45.445312 15.445312 43.3125 16.992188 C 43.3125 16.992188 45.128906 16.640625 46.125 16.65625 C 45.949219 16.847656 45.785156 17.003906 45.785156 17.003906 C 45.785156 17.003906 47 16.863281 47.804688 16.835938 L 47.230469 17.117188 C 48.097656 17.140625 49.328125 17.40625 50.191406 17.851562 C 46.054688 16.507812 42.382812 17.074219 40.613281 20.957031 C 40.613281 20.957031 42.621094 19.613281 43.914062 19.15625 C 43.851562 19.492188 43.773438 19.761719 43.773438 19.761719 C 43.773438 19.761719 45.207031 18.996094 46.210938 18.566406 L 45.730469 19.207031 C 46.691406 18.875 48.144531 18.644531 49.472656 18.671875 C 44.207031 19.417969 40.875 21.523438 42.105469 25.507812 C 42.105469 25.507812 43.070312 23.527344 44 22.578125 C 44.183594 22.875 44.324219 23.128906 44.324219 23.128906 C 44.324219 23.128906 45.152344 21.871094 45.816406 21.074219 L 45.832031 21.804688 C 46.714844 20.917969 48.484375 19.808594 50.183594 19.296875 "/>
<path style=" stroke:none;fill-rule:nonzero;fill:rgb(3.137255%,15.294118%,23.137255%);fill-opacity:1;" d="M 32.78125 25.222656 C 32.121094 25.570312 31.007812 26.28125 30.746094 27.140625 C 30.367188 28.382812 31.195312 29.507812 31.195312 29.507812 C 31.195312 29.507812 31.265625 28.351562 31.527344 27.742188 C 31.683594 27.875 31.796875 27.988281 31.796875 27.988281 C 31.796875 27.988281 31.945312 27.226562 32.105469 26.730469 L 32.269531 27.113281 C 32.476562 26.625 32.972656 25.984375 33.554688 25.507812 C 32.332031 28.976562 34.992188 32.9375 38.703125 34.109375 L 40.789062 33.375 C 33.957031 32.117188 33.910156 26.957031 34.023438 25.535156 C 34.566406 25.957031 35.023438 26.511719 35.230469 26.945312 L 35.378906 26.550781 C 35.546875 27.035156 35.71875 27.78125 35.71875 27.78125 C 35.71875 27.78125 35.835938 27.660156 35.988281 27.515625 C 36.257812 28.105469 36.359375 29.246094 36.359375 29.246094 C 36.359375 29.246094 37.15625 28.058594 36.746094 26.851562 C 36.484375 26.085938 35.515625 25.5 34.84375 25.179688 C 35.609375 25.300781 36.359375 25.535156 36.847656 25.796875 L 36.667969 25.363281 C 37.226562 25.710938 37.976562 26.296875 37.976562 26.296875 C 37.976562 26.296875 37.992188 26.125 38.023438 25.917969 C 38.75 26.308594 39.753906 27.289062 39.753906 27.289062 C 39.445312 24.8125 37.234375 24.148438 34.328125 24.578125 C 34.890625 24.253906 35.710938 24.015625 36.304688 23.953125 L 35.886719 23.804688 C 36.445312 23.773438 37.296875 23.792969 37.296875 23.792969 C 37.296875 23.792969 37.171875 23.707031 37.03125 23.589844 C 37.71875 23.519531 39.003906 23.640625 39.003906 23.640625 C 37.425781 22.777344 36.042969 22.875 34.90625 23.554688 L 34.644531 23.550781 C 35.054688 23.371094 35.710938 23.15625 35.710938 23.15625 C 35.710938 23.15625 35.570312 23.117188 35.402344 23.058594 C 35.886719 22.816406 36.933594 22.570312 36.933594 22.570312 C 36.933594 22.570312 35.65625 22.34375 34.628906 22.769531 C 33.941406 23.054688 33.605469 23.710938 33.460938 24.121094 C 33.273438 23.746094 32.941406 23.308594 32.394531 23.128906 C 31.347656 22.78125 30.089844 23.105469 30.089844 23.105469 C 30.089844 23.105469 31.132812 23.273438 31.621094 23.480469 C 31.457031 23.550781 31.320312 23.597656 31.320312 23.597656 C 31.320312 23.597656 31.976562 23.761719 32.394531 23.90625 L 32 23.949219 C 32.285156 24.074219 32.609375 24.289062 32.871094 24.546875 C 31.046875 23.816406 29.191406 24.105469 27.714844 26.105469 C 27.714844 26.105469 29.03125 25.425781 29.804688 25.222656 C 29.710938 25.414062 29.625 25.578125 29.625 25.578125 C 29.625 25.578125 30.53125 25.195312 31.148438 25 L 30.777344 25.351562 C 31.328125 25.210938 32.09375 25.15625 32.78125 25.222656 "/>
<path style=" stroke:none;fill-rule:nonzero;fill:rgb(67.058824%,72.156863%,62.745098%);fill-opacity:1;" d="M 52.171875 28.722656 C 50.765625 29.167969 49.457031 29.84375 48.390625 30.871094 C 43.441406 35.628906 39.839844 31.367188 32.878906 34.621094 C 31.234375 35.394531 29.949219 36.425781 28.953125 37.542969 C 31.410156 39.085938 34.582031 40.015625 38.046875 40.015625 C 45.863281 40.015625 52.203125 35.28125 52.203125 29.445312 C 52.203125 29.203125 52.195312 28.964844 52.171875 28.722656 "/>
<path style=" stroke:none;fill-rule:nonzero;fill:rgb(47.843137%,54.509804%,41.176471%);fill-opacity:1;" d="M 52.195312 29.746094 C 50.894531 30.296875 49.71875 31.078125 48.839844 32.164062 C 44.632812 37.300781 40.410156 33.371094 33.976562 37.1875 C 33.121094 37.699219 32.378906 38.28125 31.75 38.917969 C 33.644531 39.621094 35.789062 40.015625 38.046875 40.015625 C 45.730469 40.015625 51.984375 35.449219 52.195312 29.746094 "/>
<path style=" stroke:none;fill-rule:nonzero;fill:rgb(38.039216%,45.490196%,36.862745%);fill-opacity:1;" d="M 52.007812 31.199219 C 51.027344 31.828125 50.191406 32.625 49.597656 33.617188 C 46.363281 39.0625 41.570312 35.71875 35.949219 39.898438 C 36.628906 39.976562 37.335938 40.015625 38.046875 40.015625 C 45.066406 40.015625 50.886719 36.203125 52.007812 31.199219 "/>
<path style=" stroke:none;fill-rule:nonzero;fill:rgb(3.137255%,15.294118%,23.137255%);fill-opacity:1;" d="M 53.59375 28.75 C 51.808594 29.125 50.097656 29.84375 48.792969 31.101562 C 45.949219 33.835938 43.535156 33.761719 40.742188 33.671875 C 38.59375 33.601562 36.199219 33.519531 33.152344 34.945312 C 31.117188 35.898438 29.65625 37.253906 28.605469 38.699219 C 28.335938 38.542969 28.070312 38.382812 27.808594 38.214844 C 28.929688 36.71875 30.476562 35.304688 32.609375 34.300781 C 35.925781 32.753906 38.484375 32.832031 40.789062 32.910156 C 43.296875 32.996094 45.46875 33.0625 47.988281 30.632812 C 49.496094 29.183594 51.46875 28.386719 53.5 27.988281 C 53.546875 28.238281 53.578125 28.496094 53.59375 28.75 "/>
<path style=" stroke:none;fill-rule:nonzero;fill:rgb(3.137255%,15.294118%,23.137255%);fill-opacity:1;" d="M 22.148438 14.0625 C 22.148438 14.0625 24.40625 16.535156 24.492188 16.714844 C 24.554688 16.847656 26.324219 17.054688 29.71875 17.042969 L 30.917969 18.410156 L 31.820312 18.277344 L 32.601562 16.992188 C 32.894531 16.980469 33.199219 16.972656 33.5 16.957031 C 39.351562 16.71875 39.375 16.195312 38.632812 15.894531 C 37.890625 15.59375 35.167969 14.925781 32.65625 15.257812 C 32.046875 15.339844 31.265625 15.421875 30.429688 15.492188 L 27.523438 14.429688 L 26.53125 14.394531 L 28.179688 15.667969 C 27.546875 15.710938 26.941406 15.75 26.425781 15.785156 L 24.152344 14.363281 L 22.148438 14.0625 "/>
<path style=" stroke:none;fill-rule:nonzero;fill:rgb(100%,100%,100%);fill-opacity:1;" d="M 20.75 24.554688 C 24.089844 27.878906 31.425781 34.351562 37.96875 36.835938 C 44.507812 39.316406 48.894531 39.210938 51.003906 38.917969 L 48.957031 41.648438 C 46.503906 41.515625 30.011719 38.230469 20.53125 28.585938 L 20.75 24.554688 "/>
<path style=" stroke:none;fill-rule:nonzero;fill:rgb(3.137255%,15.294118%,23.137255%);fill-opacity:1;" d="M 27.59375 15.765625 C 21.96875 14.46875 17.402344 14.769531 15.515625 16.960938 C 12.175781 20.835938 18.445312 29.121094 29.515625 35.476562 C 40.589844 41.828125 52.265625 43.835938 55.605469 39.964844 C 57.492188 37.769531 56.292969 34.160156 52.890625 30.28125 C 55.90625 33.847656 56.917969 37.132812 55.179688 39.15625 C 51.992188 42.855469 40.765625 40.898438 30.113281 34.785156 C 19.457031 28.671875 13.402344 20.714844 16.589844 17.015625 C 18.328125 14.992188 22.464844 14.664062 27.59375 15.765625 "/>
<path style=" stroke:none;fill-rule:nonzero;fill:rgb(3.137255%,15.294118%,23.137255%);fill-opacity:1;" d="M 27.21875 16.355469 C 22.488281 15.328125 18.722656 15.605469 17.160156 17.425781 C 14.214844 20.84375 20.191406 28.410156 30.507812 34.328125 C 40.820312 40.25 51.570312 42.277344 54.515625 38.859375 C 56.078125 37.042969 55.125 34.058594 52.34375 30.765625 C 54.050781 33.195312 54.5 35.34375 53.300781 36.734375 C 50.671875 39.785156 41.09375 37.984375 31.898438 32.710938 C 22.707031 27.433594 17.386719 20.6875 20.015625 17.636719 C 21.210938 16.253906 23.84375 15.867188 27.21875 16.355469 "/>
</g>
</svg>
